<svg xmlns="http://www.w3.org/2000/svg" xmlns:xlink="http://www.w3.org/1999/xlink" viewBox="0 0 395 270.1">
	<defs>
		<style>
			.cls-1{fill:none;}.cls-2{clip-path:url(#clip-path);}.cls-3,.cls-6{fill:#20124d;}.cls-4,.cls-5{fill:#4a86e8;}.cls-4,.cls-6{fill-rule:evenodd;}.cls-7{clip-path:url(#clip-path-2);}.cls-8{fill:#fff;}.cls-9{fill:#5c576c;}
		</style>
		<clipPath id="clip-path" transform="translate(-762.5 -405)">
			<rect class="cls-1" x="762.5" y="404.9" width="395" height="270.1" />
		</clipPath>
		<clipPath id="clip-path-2" transform="translate(-762.5 -405)">
			<rect class="cls-1" x="833.5" y="419.9" width="31" height="47.8" />
		</clipPath>
	</defs>
	<g id="Layer_1" data-name="Layer 1">
		<g class="cls-2">
			<path class="cls-3" d="M762.5,407v75.4h57V466.8h-38V407Z" transform="translate(-762.5 -405)" />
			<path class="cls-3" d="M1040.5,420l-11,10c-.8-1-8.6-9.8-21-9-8.5.6-17.3,5.4-21,14-4.8,11.2.2,25.3,11,31s23.1-.5,24-1V443h17v31a56.1,56.1,0,0,1-16,8c-5.2,1.6-17.5,5.3-31,0-2.7-1.1-18.6-7.7-24-25-4.4-14.1-.1-29,9-39,12.7-13.9,30.2-13.2,33-13A43.4,43.4,0,0,1,1040.5,420Z" transform="translate(-762.5 -405)" />
			<path class="cls-3" d="M1072.9,406h-18.4v76.8h18.4Z" transform="translate(-762.5 -405)" />
			<path class="cls-3" d="M1156.5,420l-11,10c-.7-.9-7.9-9.6-20-9-.9,0-12.5.8-19,11-4.8,7.5-5.5,18,0,26,6.7,9.9,18.6,10,20,10,11.2-.1,18-7.8,19-9l12,11c-2.3,2.4-12.9,13.2-30,14-5.4.3-20.5-.1-32-12-1.9-2-11.4-12.2-11-28s11.5-26.9,14-29,15.7-13.1,35-9A41.1,41.1,0,0,1,1156.5,420Z" transform="translate(-762.5 -405)" />
			<path class="cls-4" d="M763.5,506v75h48c12.9-.4,22.4-10.7,22-21-.3-7.6-5.8-14.8-14-18,.8-.5,9.9-6.5,10-16s-9.1-19.2-22-20Zm17,13v18h20a9.3,9.3,0,0,0,10-9.5,9.1,9.1,0,0,0-10-8.4Zm0,49V550h22.7c6-.6,11,3.6,11.3,8.4s-4.8,10-11.3,9.5Z" transform="translate(-762.5 -405)" />
			<path class="cls-5" d="M1028.5,506h65.2v14.6h-24.2V581h-17.2V521h-23.8Z" transform="translate(-762.5 -405)" />
			<path class="cls-5" d="M769.5,619v53.8h7.3V639.2l14.5,33.6,5.2.2V619h-6.6v34l-14.7-34Z" transform="translate(-762.5 -405)" />
			<path class="cls-5" d="M856.1,619h21.6v6.1H864.5V642h10.3v6H864.4v19h13.3v6.5H856.1Z" transform="translate(-762.5 -405)" />
			<path class="cls-4" d="M951.5,661V631a15.2,15.2,0,0,1,30,0v30a15.2,15.2,0,0,1-30,0Zm8,1V630a7,7,0,0,1,7-6,7.1,7.1,0,0,1,7,6v32a7.1,7.1,0,0,1-14,0Z" transform="translate(-762.5 -405)" />
			<path class="cls-4" d="M917.5,673V619h18c.9.3,7.7,2.9,10,10a16.7,16.7,0,0,1-6,18c1.1,4.4,2.3,8.7,3.5,13s2.4,8.7,3.5,13h-8c-1.1-4.1-2.3-8.3-3.5-12.5s-2.4-8.3-3.5-12.5h-5v25Zm9-31V625h6a.1.1,0,0,0,.1.1,10.4,10.4,0,0,1,4.9,7.9,9.8,9.8,0,0,1-5,9Z" transform="translate(-762.5 -405)" />
			<path class="cls-4" d="M882.5,673V619h18c.9.3,7.7,2.9,10,10a16.7,16.7,0,0,1-6,18c1.1,4.4,2.3,8.7,3.5,13s2.4,8.7,3.5,13h-8c-1.1-4.1-2.3-8.3-3.5-12.5s-2.4-8.3-3.5-12.5h-5v25Zm9-31V625h6a.1.1,0,0,0,.1.1,10.4,10.4,0,0,1,4.9,7.9,9.8,9.8,0,0,1-5,9Z" transform="translate(-762.5 -405)" />
			<path class="cls-4" d="M987.5,673V619h18c.9.3,7.7,2.9,10,10a16.7,16.7,0,0,1-6,18c1.1,4.4,2.3,8.7,3.5,13s2.4,8.7,3.5,13h-8c-1.1-4.1-2.3-8.3-3.5-12.5s-2.4-8.3-3.5-12.5h-5v25Zm9-31V625h6a.1.1,0,0,0,.1.1,10.4,10.4,0,0,1,4.9,7.9,9.8,9.8,0,0,1-5,9Z" transform="translate(-762.5 -405)" />
			<path class="cls-4" d="M803.5,661.3v-30a15.2,15.2,0,0,1,30,0v30a15.2,15.2,0,0,1-30,0Zm8,1v-32a7,7,0,0,1,7-6,7.1,7.1,0,0,1,7,6v32a7.1,7.1,0,0,1-14,0Z" transform="translate(-762.5 -405)" />
			<path class="cls-5" d="M1058.5,638h7v-9a14.4,14.4,0,0,0-28,0v33a14.3,14.3,0,0,0,28,1V653h-8v8a6,6,0,1,1-12,1V631a6.6,6.6,0,0,1,13-1Z" transform="translate(-762.5 -405)" />
			<path class="cls-5" d="M1071.5,619h8v40a7.1,7.1,0,1,0,14,0V619h8v40a15,15,0,1,1-30,0Z" transform="translate(-762.5 -405)" />
			<path class="cls-5" d="M1130.2,619h26.3v6h-8.9v48h-8.2V625h-9.2Z" transform="translate(-762.5 -405)" />
			<path class="cls-6" d="M897.2,411.9H882.6c-7.9,0-15.9-.1-23.9.4-5.8.3-12.1,1.3-17.3,3.8-13.7,6.6-20.5,21.3-17,36.4s16,25.7,32,25.9c22.6.3,45.2.2,67.9,0,12.4-.1,22.2-5.6,28.5-16.3,12.8-21.7-1.8-48.6-27.2-49.8C916.2,411.9,906.7,411.9,897.2,411.9Z" transform="translate(-762.5 -405)" />
			<path class="cls-5" d="M1148.7,525c2.2-4.2,4.2-8.4,6.3-12.6a49.7,49.7,0,0,0-25.1-7.8c-6.3-.2-20.2-.6-28.3,9.4a21.1,21.1,0,0,0,2.3,30.6c2.7,2.2,5.5,3,11,4.8s5.3,1,10.3,2.3c6.5,1.8,13.2,3.7,14.1,7.9.6,2.5-1.2,4.9-1.6,5.5-4.4,6.2-16.5,3.8-20.4,3.1a41.7,41.7,0,0,1-16.5-7l-6.3,11.7a45.9,45.9,0,0,0,17.3,9.5,48.4,48.4,0,0,0,23.6.8c.8-.2,15.8-3.3,20.4-16.5,1.7-5.2,2.8-9.9,0-15.8s-6.7-7-11-9.4c-13-7.2-26.1-3.7-29.9-11-.2-.5-1.6-3.1-.7-5.5,1.8-5.4,13.1-6,18.8-5.5A34,34,0,0,1,1148.7,525Z" transform="translate(-762.5 -405)" />
			<path class="cls-5" d="M1108.5,619.2h8.5v48.2h13.6v5.5h-22.1Z" transform="translate(-762.5 -405)" />
			<path class="cls-5" d="M945.2,507.9h-29c-12.5-.1-25-.1-37.5.2a33.7,33.7,0,0,0-13.3,2.8,34.1,34.1,0,0,0-11.3,7.8,34.6,34.6,0,0,0-9.6,25c.3,19.8,16,34.6,37,34.6,33.7.2,67.2.1,100.9,0h.1a54.2,54.2,0,0,0,13.3-2c15.7-4.6,26.4-22.3,23.5-38.3-3.2-18.2-17.8-29.8-35.1-30C971.2,507.9,958.2,507.9,945.2,507.9Z" transform="translate(-762.5 -405)" />
			<g class="cls-7">
				<path class="cls-8" d="M864.5,421.1a24.1,24.1,0,0,0,0,46c-1.2.3-12.5,2.9-22-5-1.1-.9-9.7-8.3-9-20a24.1,24.1,0,0,1,16-21A24.4,24.4,0,0,1,864.5,421.1Z" transform="translate(-762.5 -405)" />
			</g>
			<circle class="cls-8" cx="170" cy="138" r="24" />
		</g>
	</g>
	<g id="Layer_2" data-name="Layer 2">
		<path class="cls-9" d="M910,438" transform="translate(-762.5 -405)" />
		<path class="cls-9" d="M910,438a7.1,7.1,0,0,1-6,6,7.1,7.1,0,0,1,6,6,7.1,7.1,0,0,1,6-6,7.1,7.1,0,0,1-6-6Z" transform="translate(-762.5 -405)" />
		<path class="cls-9" d="M897.1,429.6a3.2,3.2,0,0,1-1,2,3,3,0,0,1-1.9.9,4.3,4.3,0,0,1,1.9,1,3.9,3.9,0,0,1,1,2,3.2,3.2,0,0,1,1-2,3.5,3.5,0,0,1,1.9-1,3.1,3.1,0,0,1-1.9-.9A3.3,3.3,0,0,1,897.1,429.6Z" transform="translate(-762.5 -405)" />
		<path class="cls-9" d="M924.2,434a2.7,2.7,0,0,1-1,1.8,3.6,3.6,0,0,1-1.9.9,3.1,3.1,0,0,1,1.9.9,3.5,3.5,0,0,1,1,1.8,2.7,2.7,0,0,1,1-1.8,3,3,0,0,1,1.9-.9,3.9,3.9,0,0,1-1.9-.9A2.9,2.9,0,0,1,924.2,434Z" transform="translate(-762.5 -405)" />
		<path class="cls-9" d="M921.2,450.5a3.2,3.2,0,0,1-1,2,3.5,3.5,0,0,1-1.9,1,3.1,3.1,0,0,1,1.9.9,3.9,3.9,0,0,1,1,2,3.2,3.2,0,0,1,1-2,3,3,0,0,1,1.9-.9,4.3,4.3,0,0,1-1.9-1A3.3,3.3,0,0,1,921.2,450.5Z" transform="translate(-762.5 -405)" />
		<path class="cls-9" d="M902.2,455.5a3.2,3.2,0,0,1-1,2,3.5,3.5,0,0,1-1.9,1,3.1,3.1,0,0,1,1.9.9,3.9,3.9,0,0,1,1,2,3.2,3.2,0,0,1,1-2,3,3,0,0,1,1.9-.9,4.3,4.3,0,0,1-1.9-1A3.3,3.3,0,0,1,902.2,455.5Z" transform="translate(-762.5 -405)" />
	</g>
</svg>
