<svg width="34" height="28" viewBox="0 0 34 28" fill="none" xmlns="http://www.w3.org/2000/svg">
	<path d="M0 15.1667C0 10.4481 1.20443 6.74074 3.5651 4.04444C5.92578 1.34815 9.39453 0 13.9714 0V6.06667C12.0443 6.06667 10.6471 6.64444 9.6836 7.79999C8.76823 8.95555 8.28646 10.6889 8.28646 13.0482V15.0222H14.694V27.2037H1.87891C0.626303 23.063 0 19.0185 0 15.1667ZM18.6927 15.1667C18.6927 10.4481 19.8971 6.74074 22.2578 4.04444C24.6185 1.34815 28.0872 0 32.6641 0V6.06667C30.737 6.06667 29.3398 6.64444 28.3763 7.79999C27.4609 8.95555 26.9792 10.6889 26.9792 13.0482V15.0222H33.3867V27.2037H20.5234C19.319 23.063 18.6927 19.0185 18.6927 15.1667Z" fill="#FFF" />
</svg>
